:SAMPLES-PER-SECOND 30
:FULLY-SPECIFIED
:DEGREES
1077
root  -11.0685 34.9507 3.97523 171.23 73.5204 80.4865
RightUpLeg  -119.12 -16.0217 -3.6316
RightLeg  17.1859 -0.358223 0.857992
RightFoot  10.8013 0.253931 -0.922404
RightToes  3.49245e-010 0 -3.6325e-017
Spine  -123.26 -22.5129 -11.9959
Spine1  48.6638 -7.84227 6.68648
HEad  -25.9668 -0.666108 -10.3642
LeftShoulder1  0.00717665 3.48411 -30.0542
LeftArm  8.81653 -13.4797 -51.5779
LeftForeArm  11.9047 -23.6378 -4.48937
LeftHand  -0.0226654 5.63291 2.34776
RightShoulder  -0.470557 -4.89191 27.0285
RightArm  5.07262 -8.54879 45.405
RightForeArm  11.3065 9.67232 3.90854
RightHand  -0.138561 1.36275 -2.51204
LeftUpLeg  -78.3806 -14.7746 -14.736
LeftLeg  20.8761 11.1049 4.98672
LeftFoot  -11.6796 0.0470906 -11.1328
LeftToes  -5.36635e-011 -6.70219e-011 5.24975e-011
1078
root  -9.81935 34.7588 4.05937 172.938 73.7792 76.6354
RightUpLeg  -123.778 -16.3106 -4.40651
RightLeg  20.0367 -1.57202 0.773367
RightFoot  7.91564 0.300011 -1.44667
RightToes  3.49245e-010 0 -3.6325e-017
Spine  -128.572 -24.7185 -11.7534
Spine1  49.2923 -9.96071 7.72249
HEad  -24.6938 -0.201691 -10.9901
LeftShoulder1  -0.00386697 3.51452 -29.7412
LeftArm  10.4466 -10.4166 -51.1328
LeftForeArm  11.5307 -21.035 -4.84978
LeftHand  -0.015641 6.14817 2.24078
RightShoulder  -0.482835 -4.92142 27.2043
RightArm  4.06952 -10.3162 45.6792
RightForeArm  11.7937 8.2835 3.49599
RightHand  -0.0542048 1.72186 -1.06629
LeftUpLeg  -85.2388 -14.4655 -14.98
LeftLeg  26.2978 9.35899 5.31204
LeftFoot  -6.89179 0.628521 -14.7121
LeftToes  -5.36635e-011 -6.70219e-011 5.24975e-011
1079
root  -8.57076 34.66 4.03863 175.672 75.1191 74.6422
RightUpLeg  -126.556 -16.1771 -5.36956
RightLeg  21.2989 -3.51577 0.570835
RightFoot  5.43588 0.292219 -1.721
RightToes  3.49245e-010 0 -3.6325e-017
Spine  -133.702 -23.5825 -10.4341
Spine1  49.6835 -9.704 7.20778
HEad  -24.0069 -0.656438 -10.3281
LeftShoulder1  -0.0263939 3.57719 -29.8542
LeftArm  8.88691 -8.28193 -50.147
LeftForeArm  15.9125 -17.401 -6.44817
LeftHand  -0.0313596 5.74881 0.240684
RightShoulder  -0.455081 -4.8338 27.3011
RightArm  3.48424 -12.5237 45.6341
RightForeArm  9.95056 8.80952 3.30315
RightHand  -0.140821 1.05755 -2.64837
LeftUpLeg  -93.4498 -13.4543 -14.8098
LeftLeg  34.0279 8.28247 6.34595
LeftFoot  1.58609 1.43446 -13.5196
LeftToes  -5.36635e-011 -6.70219e-011 5.24975e-011
1080
root  -7.30643 34.4796 3.99357 176.415 76.0969 69.5116
RightUpLeg  -130.556 -16.1237 -5.55045
RightLeg  22.2459 -4.40998 0.771685
RightFoot  2.7637 0.223344 -1.65624
RightToes  3.49245e-010 0 -3.6325e-017
Spine  -140.254 -22.5992 -9.4616
Spine1  50.5809 -8.63227 6.37404
HEad  -24.2439 -2.00302 -8.94054
LeftShoulder1  -0.0194958 3.55828 -29.7376
LeftArm  4.22964 -6.87753 -49.2797
LeftForeArm  23.17 -13.1888 -8.2808
LeftHand  -0.0444578 6.1776 -1.40549
RightShoulder  -0.539937 -5.06404 27.8148
RightArm  4.82044 -13.6209 44.7446
RightForeArm  9.82406 10.0076 3.70483
RightHand  -0.111859 1.58545 -2.00887
LeftUpLeg  -103.086 -13.4557 -14.7416
LeftLeg  41.1924 8.15973 7.93645
LeftFoot  11.971 1.51141 -7.46582
LeftToes  -5.36635e-011 -6.70219e-011 5.24975e-011
1081
root  -6.05282 34.1403 4.00374 175.134 75.4337 59.8358
RightUpLeg  -137.217 -17.4242 -6.26386
RightLeg  23.7024 -4.93364 0.347143
RightFoot  0.136312 0.172782 -1.7032
RightToes  3.49245e-010 0 -3.6325e-017
Spine  -148.529 -25.816 -9.05224
Spine1  51.6282 -9.74299 6.03643
HEad  -24.8418 -2.97821 -7.62985
LeftShoulder1  -0.0356971 3.60217 -30.0006
LeftArm  0.631211 -5.05236 -47.8029
LeftForeArm  28.624 -10.1898 -9.03368
LeftHand  -0.0637618 7.07973 -1.61498
RightShoulder  -0.54257 -5.06319 27.9929
RightArm  7.09166 -13.506 44.072
RightForeArm  9.19033 10.8129 4.40814
RightHand  -0.155474 1.89633 -2.64018
LeftUpLeg  -113.18 -15.4632 -15.3395
LeftLeg  45.1257 6.7596 7.5776
LeftFoot  14.0738 1.30465 -6.13582
LeftToes  -5.36635e-011 -6.70219e-011 5.24975e-011
1082
root  -4.80595 33.9312 4.02066 174.695 73.3436 50.5383
RightUpLeg  -143.619 -19.8005 -6.45982
RightLeg  23.8245 -4.9054 0.000647252
RightFoot  -2.0255 0.112812 -1.55331
RightToes  3.49245e-010 0 -3.6325e-017
Spine  -156.871 -31.7578 -8.34289
Spine1  51.8544 -12.3373 5.7104
HEad  -25.2775 -3.05111 -7.61843
LeftShoulder1  -0.105104 3.79026 -30.593
LeftArm  -2.58063 -2.70127 -46.2084
LeftForeArm  31.3279 -8.08503 -8.94648
LeftHand  -0.0794296 7.50006 -1.82543
RightShoulder  -0.562724 -5.11993 28.0338
RightArm  8.7948 -11.9798 43.7764
RightForeArm  10.7638 11.1013 4.86928
RightHand  -0.181155 2.53607 -2.83456
LeftUpLeg  -122.694 -18.8399 -15.8571
LeftLeg  46.2465 3.78051 4.63832
LeftFoot  11.4433 1.12477 -5.94009
LeftToes  -5.36635e-011 -6.70219e-011 5.24975e-011
1083
root  -3.66356 33.956 3.98723 174.913 72.2334 47.0574
RightUpLeg  -145.151 -20.8493 -6.32095
RightLeg  23.7308 -4.80772 -0.16344
RightFoot  -3.71662 0.0818784 -1.62004
RightToes  3.49245e-010 0 -3.6325e-017
Spine  -160.312 -34.2928 -8.06612
Spine1  51.471 -13.2278 4.98041
HEad  -25.1323 -2.68232 -7.53386
LeftShoulder1  -0.115797 3.81798 -30.7285
LeftArm  -4.10781 0.524186 -44.539
LeftForeArm  30.0245 -6.80938 -8.62284
LeftHand  -0.119013 8.52548 -2.51465
RightShoulder  -0.522489 -5.01603 27.735
RightArm  9.29836 -10.2859 43.8913
RightForeArm  12.7042 11.013 5.00381
RightHand  -0.120249 1.40606 -2.18457
LeftUpLeg  -128.426 -20.4258 -15.3137
LeftLeg  46.4667 2.37574 3.07849
LeftFoot  9.58594 1.10802 -6.30573
LeftToes  -5.36635e-011 -6.70219e-011 5.24975e-011
1084
root  -2.75182 34.4917 3.84629 174.106 74.2924 56.9027
RightUpLeg  -134.002 -17.8711 -6.17961
RightLeg  25.016 -4.21049 0.0336353
RightFoot  -5.50927 0.0532098 -1.75501
RightToes  3.49245e-010 0 -3.6325e-017
Spine  -150.388 -26.0322 -10.4449
Spine1  51.8007 -7.90312 4.20077
HEad  -25.1713 -2.93071 -7.01272
LeftShoulder1  -0.102492 3.78459 -30.3779
LeftArm  -5.29862 3.78582 -43.4621
LeftForeArm  27.192 -5.43294 -8.13253
LeftHand  -0.0640195 8.67001 -0.564048
RightShoulder  -0.57877 -5.1862 27.6374
RightArm  8.96897 -9.08454 43.7158
RightForeArm  10.8165 11.5815 4.88019
RightHand  -0.197756 1.95308 -3.30805
LeftUpLeg  -123.819 -16.6501 -14.1303
LeftLeg  47.8293 2.45946 3.31487
LeftFoot  7.43491 0.837113 -5.32326
LeftToes  -5.36635e-011 -6.70219e-011 5.24975e-011
1085
root  -1.74561 34.6278 3.8109 173.746 73.0349 56.0929
RightUpLeg  -132.455 -19.0318 -6.61882
RightLeg  24.8474 -4.16676 -0.237942
RightFoot  -7.13739 -0.00320293 -1.23261
RightToes  3.49245e-010 0 -3.6325e-017
Spine  -149.889 -28.3241 -11.4111
Spine1  50.947 -8.51071 4.23072
HEad  -24.4824 -3.6184 -7.56385
LeftShoulder1  -0.111114 3.80709 -30.5176
LeftArm  -5.76636 6.90773 -42.0697
LeftForeArm  25.6458 -5.104 -7.77747
LeftHand  -0.0834483 9.33188 -0.910171
RightShoulder  -0.542141 -5.0998 27.183
RightArm  7.63296 -8.42483 43.4933
RightForeArm  8.62642 12.845 4.37264
RightHand  -0.191979 2.05697 -3.16813
LeftUpLeg  -125.792 -18.094 -14.2515
LeftLeg  43.9738 2.81733 3.29618
LeftFoot  5.48108 0.528128 -3.80078
LeftToes  -5.36635e-011 -6.70219e-011 5.24975e-011
1086
root  -0.823069 34.8127 3.79362 173.004 71.9528 56.9256
RightUpLeg  -129.336 -19.8271 -6.94293
RightLeg  25.0623 -3.82457 -0.253606
RightFoot  -8.65316 -0.0363867 -0.952997
RightToes  3.49245e-010 0 -3.6325e-017
Spine  -147.141 -30.4621 -12.9339
Spine1  50.0232 -9.26867 4.69259
HEad  -24.6071 -3.96856 -7.77332
LeftShoulder1  -0.104339 3.79077 -30.2513
LeftArm  -6.05958 9.67732 -41.1071
LeftForeArm  25.0399 -4.92252 -7.55163
LeftHand  -0.081109 9.43497 -0.751379
RightShoulder  -0.536709 -5.08578 27.1272
RightArm  7.18642 -7.69237 42.481
RightForeArm  6.16294 14.7906 4.10035
RightHand  -0.137256 2.07137 -2.31382
LeftUpLeg  -125.195 -19.1553 -15.1702
LeftLeg  38.0493 3.60028 3.34735
LeftFoot  4.20978 0.395974 -3.10076
LeftToes  -5.36635e-011 -6.70219e-011 5.24975e-011
1087
root  -0.0259806 35.1192 3.67355 170.492 73.0454 60.3189
RightUpLeg  -122.57 -18.0354 -6.7374
RightLeg  25.4206 -3.0019 -0.0305076
RightFoot  -9.9752 -0.0570207 -0.912284
RightToes  3.49245e-010 0 -3.6325e-017
Spine  -141.214 -26.0832 -14.0221
Spine1  49.2082 -6.39874 4.77273
HEad  -24.4176 -4.98082 -8.28714
LeftShoulder1  -0.0480677 3.63574 -30.2016
LeftArm  -6.17354 12.0581 -40.2369
LeftForeArm  25.294 -5.05901 -7.45178
LeftHand  -0.0551777 8.62096 -0.193201
RightShoulder  -0.514126 -5.03217 26.8219
RightArm  6.87709 -6.83351 41.5019
RightForeArm  4.26739 16.7603 4.01271
RightHand  -0.190288 2.32015 -3.0701
LeftUpLeg  -120.929 -17.736 -16.2416
LeftLeg  31.0482 4.99977 3.59099
LeftFoot  3.41047 0.458313 -3.69833
LeftToes  -5.36635e-011 -6.70219e-011 5.24975e-011
1088
root  0.734594 35.3652 3.59265 167.782 73.6131 62.8665
RightUpLeg  -116.534 -16.8732 -6.62552
RightLeg  26.0242 -2.26149 0.027224
RightFoot  -11.3587 -0.0770284 -1.05984
RightToes  3.49245e-010 0 -3.6325e-017
Spine  -135.267 -24.162 -15.2476
Spine1  47.9165 -5.34648 5.24136
HEad  -24.8747 -5.5541 -8.7599
LeftShoulder1  -0.0187909 3.55574 -29.8487
LeftArm  -6.28318 14.2952 -39.7546
LeftForeArm  26.2581 -5.48929 -7.33852
LeftHand  -0.123525 9.37822 -2.04996
RightShoulder  -0.547369 -5.12896 26.8828
RightArm  6.74889 -5.38588 40.4656
RightForeArm  3.41021 18.1319 4.06917
RightHand  -0.215403 3.10027 -3.16734
LeftUpLeg  -115.385 -17.2328 -18.9856
LeftLeg  21.0589 4.96763 2.81607
LeftFoot  4.28142 0.521071 -3.97685
LeftToes  -5.36635e-011 -6.70219e-011 5.24975e-011
